<svg width="140" height="48" viewBox="0 0 140 48" fill="none" xmlns="http://www.w3.org/2000/svg">
<path d="M128.979 6.944V10.592H122.223V30.096H117.502V10.592H110.746V6.944H128.979Z" fill="#006EB7"/>
<path d="M109.168 6.944V30.096H103.405L95.2978 14.512L94.3862 12.784H94.3211V30.096H89.8118V6.944H95.6071L99.628 14.704L104.577 24.256H104.642V6.944H109.168Z" fill="#006EB7"/>
<path d="M135.116 6.95999H130.395V30.096H135.116V6.95999Z" fill="#006EB7"/>
<path d="M62.9836 6.95999H58.2627V30.096H62.9836V6.95999Z" fill="#006EB7"/>
<path d="M54.8931 16.832V29.296C52.3861 29.952 49.7977 30.496 47.2582 30.496C39.6233 30.496 34.3326 26.752 34.3326 18.912C34.3326 18.656 34.3326 18.4 34.3489 18.144C34.6582 10.704 39.5256 6.55998 47.2582 6.55998C49.6024 6.52798 51.9303 6.86398 54.1768 7.51998L53.8675 11.424C52.0605 10.592 49.7001 10.192 47.7954 10.192C42.814 10.192 39.8512 13.2 39.3466 17.28C39.2977 17.712 39.2652 18.144 39.2652 18.592C39.2652 23.296 42.228 26.848 47.2582 26.848C48.3001 26.864 49.3419 26.752 50.3512 26.512V20.48H45.3698V16.832H54.8931Z" fill="#006EB7"/>
<path d="M85.9209 6.95999V21.744C85.9209 27.952 82.3558 30.496 76.3163 30.496C70.2767 30.496 66.6953 27.936 66.6953 21.744V6.95999H71.4163V20.32C71.4163 24.256 72.7186 26.848 76.3163 26.848C79.9139 26.848 81.2162 24.256 81.2162 20.32V6.95999H85.9209Z" fill="#006EB7"/>
<path d="M8.59534 38.2881H9.05115C9.70231 38.2881 10.3046 38.0801 10.3046 37.3281C10.3046 36.5761 9.73487 36.3201 9.05115 36.3201H8.59534V38.2881ZM7.29301 35.3121H8.9372C10.3535 35.3121 11.6558 35.7121 11.6558 37.2481C11.6558 38.7521 10.5488 39.2961 9.13255 39.2961H8.57906V41.7281H7.27673V35.3121H7.29301Z" fill="#00437A"/>
<path d="M20.5931 36.4961C20.1699 36.3201 19.7141 36.2241 19.2583 36.2241C18.8024 36.2241 18.2327 36.4161 18.2327 37.1201C18.2327 38.2401 21.0978 37.7601 21.0978 39.9201C21.0978 41.3281 19.9583 41.8561 18.6397 41.8561C17.9234 41.8561 17.6141 41.7601 16.9629 41.6161L17.0931 40.4641C17.549 40.7041 18.0536 40.8481 18.5745 40.8641C19.0629 40.8641 19.7304 40.6241 19.7304 40.0321C19.7304 38.8161 16.8652 39.3121 16.8652 37.1841C16.8652 35.7441 18.0048 35.2321 19.1443 35.2321C19.6815 35.2321 20.2024 35.2961 20.7071 35.4561L20.5931 36.4961Z" fill="#00437A"/>
<path d="M30.7836 35.3121L29.2046 38.0161L27.658 35.3121H26.1278L28.5208 39.2001V41.7441H29.8232V39.2001L32.1673 35.3121H30.7836Z" fill="#00437A"/>
<path d="M42.2767 41.648C41.7883 41.776 41.3 41.84 40.7953 41.856C38.679 41.856 37.2139 40.816 37.2139 38.64C37.2139 36.448 38.5814 35.216 40.7953 35.216C41.3 35.216 41.8046 35.312 42.2767 35.472L42.179 36.56C41.7558 36.32 41.2674 36.208 40.7628 36.224C39.4116 36.224 38.5814 37.232 38.5814 38.56C38.5814 39.888 39.4116 40.848 40.7953 40.848C41.2837 40.848 41.7721 40.768 42.2279 40.576L42.2767 41.648Z" fill="#00437A"/>
<path d="M51.6535 35.3121V37.9041H49.0325V35.3121H47.7302V41.7441H49.0325V38.9281H51.6535V41.7441H52.9721V35.3121H51.6535Z" fill="#00437A"/>
<path d="M61.8605 40.8321C63.1954 40.8321 63.7001 39.664 63.7001 38.512C63.7001 37.376 63.1629 36.224 61.8605 36.224C60.5582 36.224 60.021 37.376 60.021 38.512C60.021 39.664 60.5257 40.8321 61.8605 40.8321ZM61.8605 35.2C63.9117 35.2 65.0675 36.56 65.0675 38.496C65.0675 40.4321 63.928 41.8401 61.8605 41.8401C59.7605 41.8401 58.6536 40.4641 58.6536 38.496C58.6536 36.528 59.7768 35.2 61.8605 35.2Z" fill="#00437A"/>
<path d="M75.9744 35.3121L74.4116 40.1921H74.3954L72.8488 35.3121H70.7488V41.7441H72.0023V36.4641L72.0186 36.4321L73.7768 41.7441H75.0302L76.7884 36.4321H76.8047V41.7441H78.0582V35.3121H75.9744Z" fill="#00437A"/>
<path d="M84.0651 35.3121V41.7441H87.9395V40.7201H85.3837V38.9281H87.7116V37.9041H85.3837V36.3361H87.9232V35.3121H84.0651Z" fill="#00437A"/>
<path d="M93.0836 35.3121V36.3361H94.9557V41.7441H96.258V36.3361H98.1301V35.3121H93.0836Z" fill="#00437A"/>
<path d="M104.658 38.064H105.098C105.749 38.064 106.481 37.968 106.481 37.168C106.481 36.4 105.749 36.336 105.098 36.336H104.658V38.064ZM103.356 35.312H104.772C106.172 35.312 107.849 35.264 107.849 37.056C107.865 37.824 107.279 38.464 106.498 38.544V38.56C106.856 38.592 107.051 38.944 107.181 39.216L108.223 41.728H106.758L105.977 39.728C105.781 39.248 105.619 39.072 105.065 39.072H104.642V41.744H103.339V35.312H103.356Z" fill="#00437A"/>
<path d="M114.881 35.3121H113.563V41.7281H114.881V35.3121Z" fill="#00437A"/>
<path d="M125.512 41.648C125.023 41.776 124.519 41.84 124.03 41.856C121.914 41.856 120.449 40.816 120.449 38.64C120.449 36.448 121.816 35.216 124.03 35.216C124.535 35.216 125.04 35.312 125.512 35.488L125.414 36.576C124.991 36.336 124.486 36.224 123.998 36.24C122.647 36.24 121.816 37.248 121.816 38.576C121.816 39.904 122.63 40.864 124.03 40.864C124.519 40.864 125.007 40.784 125.463 40.592L125.512 41.648Z" fill="#00437A"/>
<path d="M134.481 36.4961C134.058 36.3201 133.602 36.2241 133.147 36.2241C132.691 36.2241 132.121 36.4161 132.121 37.1201C132.121 38.2401 134.986 37.7601 134.986 39.9201C134.986 41.3281 133.847 41.8561 132.528 41.8561C131.812 41.8561 131.502 41.7601 130.851 41.6161L130.982 40.4641C131.437 40.7041 131.942 40.8481 132.463 40.8641C132.951 40.8641 133.619 40.6241 133.619 40.0321C133.619 38.8161 130.754 39.3121 130.754 37.1841C130.754 35.7441 131.893 35.2321 133.033 35.2321C133.57 35.2321 134.091 35.2961 134.595 35.4561L134.481 36.4961Z" fill="#00437A"/>
<path d="M12.4207 12.512C11.9812 14.24 11.7533 16.016 11.7207 17.808C11.7044 18.048 11.7044 18.272 11.7044 18.512H4.88348C4.88348 17.552 4.99744 16.608 5.20907 15.68C5.22534 15.616 5.24162 15.536 5.2579 15.472C5.27418 15.408 5.29046 15.328 5.30674 15.264C5.32302 15.2 5.3393 15.168 5.35558 15.104C5.37186 15.04 5.38814 15.008 5.40441 14.96L5.45325 14.784C5.48581 14.704 5.50209 14.624 5.53465 14.544C5.55093 14.496 5.5672 14.448 5.58348 14.4C5.61604 14.32 5.63232 14.24 5.66488 14.176C5.69744 14.112 5.71372 14.048 5.74627 13.984C5.76255 13.952 5.76255 13.936 5.77883 13.92C5.79511 13.872 5.81139 13.824 5.84395 13.776C5.87651 13.728 5.87651 13.696 5.89279 13.664L5.97418 13.472C6.00674 13.392 6.05558 13.312 6.08814 13.232C6.12069 13.152 6.16953 13.072 6.20209 12.992C6.23465 12.912 6.28348 12.848 6.31604 12.768V12.752C6.39744 12.592 6.49511 12.432 6.59279 12.272C6.6579 12.16 6.72302 12.064 6.78814 11.952C6.85325 11.84 6.91837 11.744 6.98348 11.648C7.11372 11.456 7.26023 11.248 7.40674 11.056C7.48813 10.96 7.55325 10.864 7.63465 10.768C7.7486 10.624 7.87883 10.48 7.99279 10.352C8.10674 10.224 8.23697 10.096 8.35093 9.96799C8.3672 9.95199 8.38348 9.93599 8.39976 9.90399C8.41604 9.87199 8.43232 9.87199 8.46488 9.85599C9.60441 10.96 10.9556 11.872 12.4207 12.512Z" fill="#55C1EF"/>
<path d="M30.0509 18.512H23.2299C23.2462 16.496 23.002 14.496 22.5137 12.544C22.7253 12.48 22.9369 12.432 23.1486 12.4C23.2625 12.384 23.3765 12.352 23.5067 12.352L23.702 12.336L23.7997 12.32C24.5323 12.256 25.2811 12.304 26.0137 12.48C27.8206 12.928 29.2369 14.112 29.6764 15.696C29.6927 15.776 29.709 15.856 29.7416 15.92C29.8067 16.192 29.8555 16.464 29.8881 16.736C29.9044 16.784 29.9044 16.832 29.9044 16.864C29.9044 16.896 29.9206 16.912 29.9206 16.928C29.9206 16.976 29.9369 17.024 29.9369 17.088C29.9369 17.12 29.9369 17.136 29.9532 17.168C29.9695 17.2 29.9532 17.168 29.9532 17.168V17.2C29.9532 17.216 29.9532 17.232 29.9532 17.232C29.9695 17.28 29.9695 17.312 29.9695 17.36C29.9695 17.408 29.9695 17.424 29.9695 17.456C29.9695 17.488 29.9695 17.536 29.9857 17.568C30.002 17.6 29.9857 17.664 30.002 17.712C30.0183 17.76 30.002 17.792 30.002 17.824C30.002 17.856 30.002 17.872 30.002 17.888C30.002 17.904 30.002 17.952 30.002 17.984C30.002 18.016 30.002 18.048 30.002 18.08C30.002 18.112 30.002 18.128 30.002 18.144C30.002 18.16 30.002 18.192 30.002 18.208V18.24C30.002 18.32 30.002 18.4 30.002 18.48" fill="#36A4DD"/>
<path d="M30.0509 18.512C30.0509 18.784 30.0346 19.04 30.0183 19.312C30.0183 19.36 30.0184 19.424 30.0021 19.472C29.9858 19.52 29.9858 19.616 29.9858 19.68C29.9858 19.744 29.9695 19.856 29.9532 19.936C29.9532 19.984 29.937 20.032 29.937 20.08C29.937 20.08 29.937 20.08 29.937 20.096C29.937 20.144 29.9207 20.192 29.9207 20.224C29.9207 20.256 29.9044 20.336 29.8881 20.4C29.8718 20.464 29.8718 20.496 29.8718 20.56C29.8556 20.688 29.823 20.816 29.8067 20.944C29.8067 20.992 29.7904 21.04 29.7742 21.072L29.7579 21.168C29.7416 21.216 29.7416 21.264 29.7253 21.312C29.7253 21.328 29.7253 21.344 29.709 21.376C29.6928 21.424 29.6928 21.472 29.6765 21.504C29.6439 21.632 29.6114 21.776 29.5625 21.904C29.009 23.776 28.0323 25.488 26.6811 26.912C26.5835 27.024 26.4695 27.136 26.3556 27.248C26.3067 27.312 26.2416 27.36 26.1928 27.408L26.0951 27.504L26.0788 27.52C24.9881 26.512 23.7183 25.696 22.3346 25.136C22.9532 22.976 23.2463 20.752 23.23 18.512H30.0509Z" fill="#0578BE"/>
<path d="M12.5998 25.136C11.216 25.712 9.94627 26.528 8.85558 27.536C6.31604 25.2 4.88348 21.936 4.88348 18.512H11.6881C11.6881 18.592 11.6881 18.672 11.7044 18.752C11.7044 20.912 12.0137 23.056 12.5998 25.136Z" fill="#2897D5"/>
<path opacity="0.8" d="M29.9207 16.7359C29.8719 16.4639 29.8231 16.1919 29.7742 15.9199C29.7579 15.8399 29.7417 15.7599 29.7091 15.6799C29.2696 14.1119 27.8533 12.9119 26.03 12.4799C25.3138 12.3039 24.5649 12.2559 23.8324 12.3199H23.7347C23.6696 12.3199 23.6045 12.3359 23.5393 12.3519C23.4091 12.3679 23.2951 12.3839 23.1812 12.3999C22.9696 12.4479 22.7579 12.4959 22.5463 12.5599C22.3835 12.6079 22.237 12.6559 22.0742 12.7039C22.237 12.6399 22.3835 12.5919 22.53 12.5279C23.8486 11.9519 25.0696 11.1679 26.1114 10.2079C26.4696 10.3359 26.8114 10.4639 27.137 10.6079H27.1533C28.6347 12.3519 29.5952 14.4799 29.9207 16.7359Z" fill="#A2C1DF"/>
<path d="M27.1371 10.608L27.1208 10.592C26.779 10.448 26.4371 10.304 26.0952 10.192C26.2092 10.08 26.3232 9.96799 26.4534 9.85599C26.5836 9.98399 26.7139 10.128 26.8441 10.256C26.8929 10.304 26.9418 10.352 26.9743 10.4C27.0069 10.448 27.072 10.544 27.1371 10.608Z" fill="#54C0EF"/>
<path d="M17.3047 6.16C15.2047 6.288 13.3814 8.816 12.421 12.528C10.9559 11.888 9.62098 10.992 8.48145 9.856L8.514 9.824L8.54656 9.792C8.61168 9.728 8.67679 9.664 8.74191 9.6C8.80703 9.536 8.87214 9.472 8.93726 9.424L9.13261 9.248L9.23028 9.168C9.27912 9.12 9.32796 9.088 9.37679 9.04C9.37679 9.04 9.37679 9.024 9.39307 9.024C9.40935 9.008 9.40935 9.008 9.42563 9.008C9.45819 8.976 9.49075 8.944 9.53958 8.928C9.55586 8.912 9.55586 8.912 9.57214 8.896L9.80005 8.72C9.88144 8.656 9.96284 8.592 10.0442 8.544C10.0768 8.528 10.0931 8.512 10.1256 8.48L10.1582 8.448C10.2884 8.352 10.4187 8.256 10.5652 8.176C10.6628 8.112 10.7605 8.048 10.8582 7.984L11.0373 7.872C11.1187 7.84 11.1838 7.792 11.2489 7.744L11.2814 7.728L11.3466 7.696L11.4117 7.664L11.4442 7.648C11.4768 7.632 11.5256 7.6 11.5582 7.584L11.607 7.552H11.6233C11.6559 7.536 11.7047 7.504 11.7535 7.488L11.7698 7.472C11.8349 7.44 11.9 7.408 11.9652 7.376L12.0303 7.344L12.1117 7.312L12.2582 7.248L12.307 7.232H12.3721L12.5187 7.168L12.5512 7.152C12.6977 7.088 12.828 7.04 12.9745 6.992L13.0884 6.944C13.1047 6.944 13.1373 6.928 13.1535 6.928C14 6.624 14.8791 6.416 15.7745 6.288C16.1977 6.24 16.621 6.192 17.0442 6.176H17.1093H17.2396L17.3047 6.16Z" fill="#B5E1F8"/>
<path d="M26.4371 9.85599C26.3231 9.96799 26.2092 10.08 26.0789 10.192C25.7045 10.064 25.3138 9.95199 24.9231 9.87199C24.744 9.83999 24.5812 9.79199 24.4022 9.75999C23.7998 9.66399 23.1812 9.59999 22.5626 9.58399H22.2371C22.1557 9.58399 22.0743 9.58399 22.0092 9.58399C21.8301 9.58399 21.6673 9.59999 21.4882 9.61599C20.4789 7.53599 19.1278 6.22399 17.6464 6.12799C17.6952 6.12799 17.744 6.12799 17.7929 6.12799H17.9719H18.1185H18.1347L18.2975 6.14399C18.3138 6.14399 18.3464 6.14399 18.3626 6.14399L18.6231 6.15999L18.7859 6.17599C18.8347 6.17599 18.8836 6.19199 18.9487 6.19199L19.258 6.22399C19.3231 6.23999 19.3882 6.23999 19.4533 6.25599C19.5185 6.27199 19.5673 6.27199 19.6161 6.28799C19.6975 6.30399 19.7789 6.31999 19.8766 6.33599C21.1464 6.57599 22.3673 7.00799 23.5068 7.61599C23.8812 7.82399 24.2557 8.06399 24.6138 8.30399C25.0208 8.57599 25.4115 8.87999 25.7859 9.19999C25.9975 9.42399 26.2254 9.63199 26.4371 9.85599Z" fill="#55C1EF"/>
<path opacity="0.8" d="M26.0951 10.192C25.0533 11.168 23.8323 11.952 22.5137 12.512C22.2696 11.52 21.9277 10.56 21.4882 9.63201C21.6672 9.61601 21.8463 9.61601 22.0091 9.60001C22.0905 9.60001 22.1556 9.60001 22.237 9.60001C22.3184 9.60001 22.3672 9.60001 22.4323 9.60001C22.4649 9.60001 22.5137 9.60001 22.5463 9.60001C23.1649 9.60001 23.7835 9.66401 24.3858 9.76001C24.5649 9.79201 24.7277 9.82401 24.9067 9.85601C25.3137 9.96801 25.7044 10.08 26.0951 10.192Z" fill="#DAE4F1"/>
<path d="M26.0789 27.536C26.0138 27.6 25.965 27.648 25.8998 27.696L25.7859 27.792L25.6068 27.952L25.5905 27.968C25.4929 28.048 25.3789 28.128 25.2812 28.224C25.2487 28.256 25.2161 28.288 25.1673 28.304L24.9394 28.464C24.7929 28.576 24.6301 28.672 24.4836 28.784C23.9789 29.12 23.4417 29.424 22.8882 29.68C22.351 29.936 21.7975 30.144 21.2278 30.32C21.1952 30.336 21.1464 30.336 21.1138 30.352L21.0812 30.368C21.0161 30.384 20.9347 30.416 20.8696 30.432H20.8533C20.7719 30.448 20.6743 30.48 20.5929 30.496C20.3975 30.544 20.2185 30.592 20.0231 30.624C19.7464 30.688 19.4533 30.736 19.1766 30.768C18.8999 30.8 18.6068 30.832 18.3138 30.864L18.151 30.88C18.0371 30.896 17.9231 30.896 17.8092 30.896C17.7766 30.896 17.7278 30.896 17.6789 30.896C19.6487 30.768 21.3905 28.512 22.3673 25.152C23.7347 25.712 25.0045 26.512 26.0789 27.536Z" fill="#044487"/>
<path d="M17.3208 30.88H17.1743H17.0115H16.8812H16.8324H16.7022L16.5719 30.864H16.5557H16.458L16.0673 30.832L15.9533 30.816C15.9208 30.816 15.8882 30.816 15.8557 30.8L15.758 30.784L15.5952 30.768C15.5301 30.768 15.4812 30.752 15.4161 30.736L15.2533 30.704C15.2045 30.704 15.1557 30.688 15.1068 30.672C15.058 30.656 15.0091 30.656 14.9603 30.64L14.8952 30.624L14.7812 30.608C14.6673 30.592 14.5696 30.56 14.4719 30.544C14.3254 30.512 14.1789 30.464 14.0324 30.432L13.8859 30.384L13.7394 30.336C13.4952 30.256 13.251 30.176 13.0068 30.096C12.8115 30.032 12.6324 29.952 12.437 29.872C12.3882 29.856 12.3394 29.824 12.2905 29.808C12.1766 29.76 12.0626 29.712 11.9487 29.648C11.8347 29.584 11.6719 29.52 11.5417 29.44C11.4766 29.408 11.4115 29.376 11.3463 29.344L11.151 29.232L11.0859 29.2C10.8743 29.072 10.6789 28.96 10.4673 28.816L10.2557 28.672C9.76728 28.336 9.29519 27.952 8.85565 27.552C9.94635 26.544 11.2161 25.728 12.5998 25.152C13.5929 28.528 15.3347 30.784 17.3208 30.896" fill="#0578BE"/>
<path d="M21.4881 9.63195C21.2439 9.64795 20.9835 9.67995 20.7393 9.71195C19.6323 9.85595 18.5579 10.144 17.5486 10.576C17.4835 10.608 17.4021 10.64 17.337 10.672C16.5067 11.0399 15.7416 11.504 15.0416 12.064C14.6509 12.368 14.2928 12.7039 13.9509 13.056C13.4463 12.912 12.9416 12.7359 12.4532 12.512C13.4137 8.81595 15.237 6.27195 17.337 6.14395H17.6625C19.1277 6.23995 20.4788 7.55195 21.4881 9.63195Z" fill="#87D1F5"/>
<path d="M13.9347 13.056C12.6649 14.416 11.8509 16.064 11.7207 17.824C11.7533 16.032 11.9974 14.256 12.437 12.528C12.9254 12.72 13.43 12.912 13.9347 13.056Z" fill="#42B2E7"/>
<path d="M23.2299 18.512H18.688C18.5904 18.24 18.5252 17.968 18.4764 17.696C18.1997 15.616 19.6485 13.632 21.895 12.752L22.0252 12.704H22.0415C22.188 12.656 22.3508 12.592 22.5136 12.56C23.002 14.512 23.2462 16.512 23.2299 18.512Z" fill="#42B2E7"/>
<path d="M23.2301 18.512C23.2464 20.752 22.9534 22.976 22.3348 25.136C20.8045 24.512 19.1766 24.176 17.5324 24.176C17.7603 24.176 18.0045 24.16 18.2324 24.128C19.958 23.904 21.4882 22.928 22.3836 21.456C20.6417 21.056 19.2255 19.984 18.6883 18.512H23.2301Z" fill="#1887C9"/>
<path d="M22.3346 25.136C21.3415 28.496 19.616 30.752 17.6299 30.88H17.3043C15.3183 30.768 13.5764 28.512 12.5834 25.136C14.0974 24.512 15.7415 24.176 17.3857 24.176H17.516C19.1764 24.192 20.8206 24.512 22.3346 25.136Z" fill="#06589C"/>
<path opacity="0.8" d="M22.5137 12.512C22.3672 12.576 22.2207 12.64 22.0579 12.688H22.0416L21.9114 12.736C20.4951 13.264 18.9812 13.52 17.4672 13.52C16.2626 13.52 15.0742 13.36 13.9347 13.024C14.2765 12.672 14.6347 12.336 15.0254 12.032C15.7254 11.472 16.5068 11.008 17.3207 10.64C17.3858 10.608 17.4672 10.576 17.5323 10.544C18.5579 10.112 19.6323 9.82401 20.723 9.68001C20.9835 9.64801 21.2277 9.61601 21.4719 9.60001C21.9114 10.544 22.2695 11.52 22.5137 12.512Z" fill="#E9F0FA"/>
<path opacity="0.8" d="M18.4927 17.696C18.5252 17.984 18.6066 18.256 18.7043 18.512H11.7043C11.7043 18.272 11.7043 18.048 11.7206 17.808C11.8508 16.064 12.6648 14.416 13.9345 13.04C15.0904 13.376 16.2787 13.536 17.4671 13.536C18.9811 13.536 20.495 13.264 21.9113 12.736C19.6648 13.632 18.1997 15.632 18.4927 17.696Z" fill="#DAE4F1"/>
<path d="M17.402 24.176C15.7578 24.176 14.1136 24.512 12.5997 25.136C12.0136 23.056 11.7043 20.912 11.7043 18.768C11.7043 18.832 11.7043 18.896 11.7206 18.96C11.7369 19.072 11.7369 19.168 11.7532 19.28C12.1276 22.032 14.488 24.112 17.3206 24.176H17.402Z" fill="#1887C9"/>
<path opacity="0.8" d="M22.3997 21.456C21.5043 22.928 19.9741 23.904 18.2322 24.128C18.0043 24.16 17.7601 24.176 17.5322 24.176H17.3206C14.488 24.112 12.1276 22.032 11.7532 19.28C11.7369 19.168 11.7206 19.072 11.7206 18.96C11.7206 18.896 11.7206 18.832 11.7043 18.768C11.7043 18.688 11.7043 18.608 11.7043 18.528H18.7043C19.2415 19.984 20.6578 21.072 22.3997 21.456Z" fill="#A2C1DF"/>
</svg>
